<?xml version="1.0" encoding="utf-8"?>
<!-- Generator: Adobe Illustrator 27.4.1, SVG Export Plug-In . SVG Version: 6.00 Build 0)  -->
<svg version="1.1" id="Layer_1" xmlns="http://www.w3.org/2000/svg" xmlns:xlink="http://www.w3.org/1999/xlink" x="0px" y="0px"
	 viewBox="0 0 322.2 261.4" style="enable-background:new 0 0 322.2 261.4;" xml:space="preserve">
<style type="text/css">
	.st0{fill:#FFFFFF;}
</style>
<g id="SvgjsG1594" class="st0" transform="matrix(1.1786614721344382,0,0,1.1786614721344382,72.1936069853893,-2.2378021819517286)">
	<path class="st0" d="M153.1,73.4c-2.9-3.3-7.9-5.7-14.2-7.2c2-6,2.6-11.6,1.3-15.7l-0.3-1l-0.9-0.6c-2.7-1.6-6.4-2.3-10.7-2.3
		c-2.6,0-5.6,0.3-8.9,1c0-7.9-1.9-14.9-5.3-18.9l-0.7-0.9l-1-0.1c-0.4,0-0.9,0-1.4,0c-5.9,0-13.2,3.3-19.7,8.7
		c-3.9-8.6-9.3-15.2-15-17.5l-1-0.4L74.4,19c-5.6,2.3-11,8.9-14.9,17.5c-6.7-5.4-13.9-8.7-19.7-8.7c-0.4,0-0.9,0-1.4,0l-1,0.1
		l-0.7,0.9c-3.4,4-5.3,10.9-5.3,18.9c-3.3-0.7-6.3-1-8.9-1c-4.3,0-8,0.9-10.7,2.3l-0.9,0.6l-0.4,0.9c-1.3,4.2-0.7,9.9,1.3,15.9
		c-6.2,1.4-11,3.9-13.9,7.2l-0.7,0.9v1c0.6,14.3,24,36.1,51.9,36.1c8.9,0,17.5-2.1,25.9-6.3l0.3,0.3l0.4-0.4c8.3,4.3,17,6.3,26,6.3
		l0,0c27.8,0,51.2-21.8,51.9-36.1v-1L153.1,73.4z M128.2,51.8c2.9,0,5.3,0.4,7.2,1.1c0.6,3,0,7.4-1.9,12.3c-2-0.3-4.2-0.3-6.4-0.3
		c-3.4,0-7.2,0.3-10.9,1c0.1-0.3,0.1-0.6,0.3-0.7c1.3-4,2-8.2,2.4-12.2C122.4,52.3,125.5,51.8,128.2,51.8z M39.1,63.7
		c-1-3-1.6-6.2-2-9c5.9,2.1,11.9,5.4,17.5,10c0.1,3,0.6,6.2,1.3,9.6c-5-3.1-10.2-5.4-15.5-6.9C39.8,66.1,39.4,64.8,39.1,63.7z
		 M60.5,51.2c0.3-1.9,0.7-3.7,1.3-5.6c1.9,2,3.6,4.2,5.3,6.6c1.7,2.6,3.7,5.9,5.4,10c-1.3,3.6-2.4,7.4-3,11.7
		c-3-4.9-6.4-8.7-9.9-11.9C59.5,58,60,54.3,60.5,51.2z M90.2,51.2c0.6,3,1,6.7,0.9,11c-3.4,3.1-6.9,7-9.9,11.9
		c-0.6-4.3-1.7-8.3-3-11.9c1.7-4,3.7-7.4,5.4-10c1.7-2.4,3.4-4.6,5.3-6.6C89.5,47.5,89.9,49.4,90.2,51.2z M113.6,54.7
		c-0.4,2.9-1,5.9-2,9c-0.4,1.1-0.9,2.4-1.3,3.7c-5.3,1.6-10.6,3.9-15.5,7c0.9-3.4,1.1-6.6,1.4-9.7C101.8,60.1,107.8,56.8,113.6,54.7
		z M69,84.6c0,0.4,0,0.9,0.1,1.3c-1.9-2.3-4-4.4-6.2-6.3c-1.1-3-2-6-2.4-8.9C63.8,74.6,66.8,79.3,69,84.6z M90.2,70.7
		c-0.6,3-1.4,6.2-2.6,9.3c-2.1,1.9-4.2,4-6,6.3c0-0.6,0.1-1,0.1-1.6C83.9,79.3,86.7,74.7,90.2,70.7z M84.7,95.6
		c3.3-4.3,5.7-8.6,7.4-12.9c4.9-4.2,10.2-7,15.2-8.9C103.2,81.6,96.3,90,84.7,95.6z M76.6,83.6c-0.4,1.1-0.9,2.1-1.1,3.3
		c-0.4-1.1-0.7-2.3-1.1-3.4c-0.1-4.4,0.3-8.6,1.1-12.3C76.1,74.9,76.7,79,76.6,83.6z M58.4,82.3c1.7,4.4,4.3,8.9,7.6,13.2
		c-11.6-5.6-18.6-14.2-22.8-21.9C48.2,75.6,53.5,78.3,58.4,82.3z M62.8,99.8C47.5,98.8,33.6,91,24.1,78c-1.9-2.6-3.4-5.2-4.7-7.6
		c1.4-0.1,2.9-0.1,4.4-0.1c2.6,0,7.3,0.3,12.7,1.4C40.5,81,48.2,92.5,62.8,99.8z M114.2,71.9c5.6-1.3,10.3-1.6,13-1.6
		c1.4,0,2.9,0.1,4.2,0.1c-1.3,2.4-2.9,5-4.7,7.6c-9.6,13-23.6,20.8-38.8,21.8C102.5,92.5,110.2,81,114.2,71.9z M110.8,33.1
		c2.1,3.1,3.6,9,3.3,15.9c-5.7,1.7-11.9,4.7-17.9,9c-0.1-2.9-0.4-5.4-0.9-7.6c-0.6-3-1.3-5.9-2.3-8.7
		C99.6,36.1,106.2,33.1,110.8,33.1z M75.3,24.5c4,2.1,8.4,7.9,11.7,15.7c-2.9,2.7-5.4,5.7-7.7,9c-1.3,1.9-2.6,4-4,6.6
		c-1.3-2.6-2.7-4.7-4-6.6c-2.3-3.3-4.9-6.3-7.7-9C66.8,32.4,71.4,26.6,75.3,24.5z M39.9,33.1c4.4,0.1,11.2,3,17.6,8.6
		c-1,2.7-1.7,5.7-2.3,8.7c-0.4,2.1-0.7,4.7-0.9,7.6c-5.9-4.3-12.2-7.2-17.9-9C36.5,42.1,37.8,36.2,39.9,33.1z M15.3,53
		c1.9-0.7,4.3-1.1,7.2-1.1c2.7,0,5.9,0.4,9.2,1.1c0.4,4,1.1,8.2,2.4,12.2c0.1,0.3,0.1,0.4,0.3,0.7c-3.6-0.6-7.2-1-10.6-1
		c-2.3,0-4.6,0.1-6.7,0.4C15.3,60.4,14.8,56,15.3,53z M2.6,76.1c2.1-2,6-3.7,11.2-4.9c1.6,3.3,3.6,6.7,5.9,9.9
		c10,13.7,24.8,22,40.8,23.8c-3.7,0.9-7.4,1.3-11.3,1.3C23.8,106.1,4.3,87,2.6,76.1z M101.8,106.1c-3.9,0-7.6-0.4-11.3-1.3
		c16-1.6,30.5-10,40.5-23.6c2.4-3.3,4.3-6.6,5.9-9.9c5.3,1.1,9.3,3,11.4,4.9C146.7,87,127.2,106.1,101.8,106.1z"/>
</g>
<g id="SvgjsG1595" transform="matrix(5.800464242478098,0,0,5.800464242478098,-5.220415605528779,85.35731181903006)">
	<path class="st0" d="M7.4,17.5c1.8,0,3.3,0.6,4.6,1.9c1.3,1.2,1.9,2.8,1.9,4.6c0,1.8-0.6,3.3-1.9,4.5s-2.8,1.8-4.6,1.9
		c-1.8,0-3.3-0.6-4.6-1.9c-1.3-1.2-1.9-2.8-1.9-4.6c0-1.8,0.6-3.3,1.9-4.5S5.6,17.5,7.4,17.5L7.4,17.5z M3.4,23.9
		c0,1.3,0.4,2.3,1.1,3.1s1.7,1.2,2.9,1.2s2.2-0.4,2.9-1.2c0.7-0.8,1.1-1.8,1.1-3.1c0-1.3-0.4-2.3-1.1-3.1c-0.7-0.8-1.7-1.2-3-1.2
		c-1.2,0-2.2,0.4-2.9,1.2S3.4,22.7,3.4,23.9L3.4,23.9z M21.7,17.5c1.5,0,2.8,0.4,3.7,1.1c0.9,0.7,1.4,1.7,1.4,2.9V28
		c0,0.6,0,1.3,0.1,2h-2.1c-0.1-0.5-0.1-1.2-0.1-1.9h-0.1c-0.5,0.8-1.1,1.3-1.8,1.7c-0.7,0.3-1.5,0.5-2.4,0.5c-1.3,0-2.3-0.3-3.1-1
		s-1.2-1.6-1.2-2.7c0-1.4,0.6-2.4,1.8-3.2c1.2-0.7,2.8-1.1,4.9-1.1h1.7V22c0-0.8-0.3-1.5-0.8-1.9c-0.5-0.5-1.3-0.7-2.1-0.7
		c-0.7,0-1.2,0.1-1.7,0.3c-0.5,0.2-1.1,0.6-1.7,1.1l-1.4-1.4C18.2,18.1,19.8,17.5,21.7,17.5L21.7,17.5z M18.5,26.5
		c0,1.3,0.9,2,2.6,2c1,0,1.9-0.3,2.5-0.9s0.9-1.5,1-2.7v-0.7h-1.3c-1.5,0-2.7,0.2-3.5,0.6C19,25.1,18.5,25.7,18.5,26.5z M34.3,17.5
		c0.9,0,1.8,0.2,2.5,0.5s1.3,0.8,1.7,1.5l-1.8,1.4c-0.7-0.8-1.5-1.2-2.5-1.2c-0.6,0-1.1,0.1-1.5,0.4s-0.6,0.6-0.6,1
		c0,0.9,0.8,1.4,2.4,1.8c1.6,0.3,2.7,0.7,3.3,1.3s1,1.4,1,2.4c0,1.2-0.5,2.1-1.4,2.8c-0.9,0.7-2.1,1-3.6,1c-1.1,0-2.1-0.2-2.8-0.5
		s-1.4-0.9-1.9-1.6l1.8-1.4c0.9,1,1.9,1.4,3,1.4c0.7,0,1.3-0.1,1.8-0.4s0.7-0.7,0.7-1.1c0-0.8-0.8-1.4-2.3-1.8
		c-1.7-0.3-2.9-0.8-3.5-1.4s-0.9-1.3-0.9-2.2c0-1.1,0.4-2,1.3-2.7S33,17.5,34.3,17.5L34.3,17.5z M43,11.7c0.5,0,0.9,0.2,1.2,0.5
		s0.5,0.7,0.5,1.2s-0.2,0.9-0.5,1.2s-0.7,0.5-1.2,0.5s-0.9-0.2-1.2-0.5s-0.5-0.7-0.5-1.2s0.2-0.9,0.5-1.2S42.5,11.7,43,11.7L43,11.7
		z M44.1,17.8V30h-2.3V17.8H44.1z M51.9,17.5c0.9,0,1.8,0.2,2.5,0.5s1.3,0.8,1.7,1.5l-1.8,1.4c-0.7-0.8-1.5-1.2-2.5-1.2
		c-0.6,0-1.1,0.1-1.5,0.4s-0.6,0.6-0.6,1c0,0.9,0.8,1.4,2.4,1.8c1.6,0.3,2.7,0.7,3.3,1.3c0.6,0.6,1,1.4,1,2.4c0,1.2-0.5,2.1-1.4,2.8
		c-0.9,0.7-2.1,1-3.6,1c-1.1,0-2.1-0.2-2.8-0.5s-1.4-0.9-1.9-1.6l1.8-1.4c0.9,1,1.9,1.4,3,1.4c0.7,0,1.3-0.1,1.8-0.4
		s0.7-0.7,0.7-1.1c0-0.8-0.8-1.4-2.3-1.8c-1.7-0.3-2.9-0.8-3.5-1.4s-0.9-1.3-0.9-2.2c0-1.1,0.4-2,1.3-2.7
		C49.5,17.9,50.6,17.5,51.9,17.5L51.9,17.5z"/>
</g>
</svg>
