<?xml version="1.0" encoding="UTF-8"?><svg id="Layer_1" xmlns="http://www.w3.org/2000/svg" viewBox="0 0 320.53 221.15"><g id="SvgjsG1594"><path d="m251.6,64.71c-3.42-3.89-9.31-6.72-16.74-8.49,2.36-7.07,3.06-13.67,1.53-18.5l-.35-1.18-1.06-.71c-3.18-1.89-7.54-2.71-12.61-2.71-3.06,0-6.6.35-10.49,1.18,0-9.31-2.24-17.56-6.25-22.28l-.83-1.06-1.18-.12h-1.65c-6.95,0-15.56,3.89-23.22,10.25-4.6-10.14-10.96-17.92-17.68-20.63l-1.18-.47-1.06.59c-6.6,2.71-12.97,10.49-17.56,20.63-7.9-6.36-16.38-10.25-23.22-10.25h-1.65l-1.18.12-.83,1.06c-4.01,4.71-6.25,12.85-6.25,22.28-3.89-.83-7.43-1.18-10.49-1.18-5.07,0-9.43,1.06-12.61,2.71l-1.06.71-.47,1.06c-1.53,4.95-.83,11.67,1.53,18.74-7.31,1.65-12.97,4.6-16.38,8.49l-.83,1.06v1.18c.71,16.85,28.29,42.55,61.17,42.55,10.49,0,20.63-2.48,30.53-7.43l.35.35.47-.47c9.78,5.07,20.04,7.43,30.65,7.43h0c32.77,0,60.35-25.69,61.17-42.55v-1.18l-.59-1.18Zm-29.35-25.46c3.42,0,6.25.47,8.49,1.3.71,3.54,0,8.72-2.24,14.5-2.36-.35-4.95-.35-7.54-.35-4.01,0-8.49.35-12.85,1.18.12-.35.12-.71.35-.83,1.53-4.71,2.36-9.67,2.83-14.38,4.13-.83,7.78-1.41,10.96-1.41Zm-105.02,14.03c-1.18-3.54-1.89-7.31-2.36-10.61,6.95,2.48,14.03,6.36,20.63,11.79.12,3.54.71,7.31,1.53,11.32-5.89-3.65-12.02-6.36-18.27-8.13-.71-1.53-1.18-3.06-1.53-4.36Zm25.22-14.73c.35-2.24.83-4.36,1.53-6.6,2.24,2.36,4.24,4.95,6.25,7.78,2,3.06,4.36,6.95,6.36,11.79-1.53,4.24-2.83,8.72-3.54,13.79-3.54-5.78-7.54-10.25-11.67-14.03-.12-4.71.47-9.08,1.06-12.73Zm35.01,0c.71,3.54,1.18,7.9,1.06,12.97-4.01,3.65-8.13,8.25-11.67,14.03-.71-5.07-2-9.78-3.54-14.03,2-4.71,4.36-8.72,6.36-11.79,2-2.83,4.01-5.42,6.25-7.78.71,2.24,1.18,4.48,1.53,6.6Zm27.58,4.13c-.47,3.42-1.18,6.95-2.36,10.61-.47,1.3-1.06,2.83-1.53,4.36-6.25,1.89-12.49,4.6-18.27,8.25,1.06-4.01,1.3-7.78,1.65-11.43,6.6-5.42,13.67-9.31,20.51-11.79Zm-52.57,35.24c0,.47,0,1.06.12,1.53-2.24-2.71-4.71-5.19-7.31-7.43-1.3-3.54-2.36-7.07-2.83-10.49,3.89,4.6,7.43,10.14,10.02,16.38Zm24.99-16.38c-.71,3.54-1.65,7.31-3.06,10.96-2.48,2.24-4.95,4.71-7.07,7.43,0-.71.12-1.18.12-1.89,2.59-6.36,5.89-11.79,10.02-16.5Zm-6.48,29.35c3.89-5.07,6.72-10.14,8.72-15.2,5.78-4.95,12.02-8.25,17.92-10.49-4.83,9.19-12.97,19.09-26.64,25.69Zm-9.55-14.14c-.47,1.3-1.06,2.48-1.3,3.89-.47-1.3-.83-2.71-1.3-4.01-.12-5.19.35-10.14,1.3-14.5.71,4.36,1.41,9.19,1.3,14.62Zm-21.45-1.53c2,5.19,5.07,10.49,8.96,15.56-13.67-6.6-21.92-16.74-26.87-25.81,5.89,2.36,12.14,5.54,17.92,10.25Zm5.19,20.63c-18.03-1.18-34.42-10.37-45.61-25.69-2.24-3.06-4.01-6.13-5.54-8.96,1.65-.12,3.42-.12,5.19-.12,3.06,0,8.6.35,14.97,1.65,4.71,10.96,13.79,24.52,31,33.12Zm60.58-32.88c6.6-1.53,12.14-1.89,15.32-1.89,1.65,0,3.42.12,4.95.12-1.53,2.83-3.42,5.89-5.54,8.96-11.32,15.32-27.82,24.52-45.73,25.69,17.21-8.6,26.28-22.16,31-32.88Zm-4.01-45.73c2.48,3.65,4.24,10.61,3.89,18.74-6.72,2-14.03,5.54-21.1,10.61-.12-3.42-.47-6.36-1.06-8.96-.71-3.54-1.53-6.95-2.71-10.25,7.78-6.6,15.56-10.14,20.98-10.14Zm-41.84-10.14c4.71,2.48,9.9,9.31,13.79,18.5-3.42,3.18-6.36,6.72-9.08,10.61-1.53,2.24-3.06,4.71-4.71,7.78-1.53-3.06-3.18-5.54-4.71-7.78-2.71-3.89-5.78-7.43-9.08-10.61,3.77-9.19,9.19-16.03,13.79-18.5Zm-41.72,10.14c5.19.12,13.2,3.54,20.74,10.14-1.18,3.18-2,6.72-2.71,10.25-.47,2.48-.83,5.54-1.06,8.96-6.95-5.07-14.38-8.49-21.1-10.61.12-8.13,1.65-15.09,4.13-18.74Zm-29,23.46c2.24-.83,5.07-1.3,8.49-1.3,3.18,0,6.95.47,10.84,1.3.47,4.71,1.3,9.67,2.83,14.38.12.35.12.47.35.83-4.24-.71-8.49-1.18-12.49-1.18-2.71,0-5.42.12-7.9.47-2.12-5.78-2.71-10.96-2.12-14.5Zm-14.97,27.23c2.48-2.36,7.07-4.36,13.2-5.78,1.89,3.89,4.24,7.9,6.95,11.67,11.79,16.15,29.23,25.93,48.09,28.05-4.36,1.06-8.72,1.53-13.32,1.53-29.94-.12-52.92-22.63-54.93-35.48Zm116.92,35.36c-4.6,0-8.96-.47-13.32-1.53,18.86-1.89,35.95-11.79,47.74-27.82,2.83-3.89,5.07-7.78,6.95-11.67,6.25,1.3,10.96,3.54,13.44,5.78-1.89,12.73-24.87,35.24-54.81,35.24Z"/></g><path d="m20.66,201.43c-5.38,0-9.29-1.36-11.73-4.08-2.44-2.72-3.66-6.4-3.66-11.05v-14.19H0v-11.82h5.27v-8.25l15.98-3.83v12.07h9.27l-.59,11.82h-8.67v13c0,1.7.43,2.9,1.28,3.61.85.71,2.15,1.06,3.91,1.06,1.64,0,3.31-.28,5.02-.85v10.62c-3,1.25-6.6,1.87-10.79,1.87Z"/><path d="m35.7,200.58v-40.29h15.38l.42,3.23c1.64-.96,3.74-1.84,6.29-2.64,2.55-.79,5.13-1.27,7.74-1.44v11.9c-1.47.11-3.07.31-4.8.6-1.73.28-3.4.64-5.02,1.06-1.61.42-2.96.89-4.04,1.4v26.18h-15.98Z"/><path d="m80.07,201.43c-2.55,0-4.92-.45-7.1-1.36-2.18-.91-3.92-2.32-5.23-4.25-1.3-1.93-1.96-4.36-1.96-7.31,0-4.25,1.42-7.55,4.25-9.9,2.83-2.35,7.11-3.53,12.83-3.53h10.46v-.76c0-1.59-.65-2.75-1.96-3.49-1.3-.74-3.6-1.11-6.88-1.11-4.65,0-9.24.71-13.77,2.12v-9.6c2.04-.79,4.59-1.46,7.65-2,3.06-.54,6.18-.81,9.35-.81,6.4,0,11.47,1.3,15.21,3.91,3.74,2.61,5.61,6.75,5.61,12.41v24.82h-13.94l-.77-3.23c-1.42,1.25-3.24,2.24-5.48,2.98-2.24.74-5,1.1-8.29,1.1Zm5.44-9.35c1.81,0,3.36-.31,4.63-.93,1.27-.62,2.34-1.39,3.19-2.3v-5.01h-7.73c-3.51,0-5.27,1.39-5.27,4.17s1.73,4.08,5.19,4.08Z"/><path d="m115.77,200.58v-40.29h14.96l.42,3.06c1.53-1.02,3.56-1.93,6.08-2.72,2.52-.79,5.23-1.19,8.12-1.19,5.04,0,8.73,1.25,11.05,3.74,2.32,2.49,3.48,6.35,3.48,11.56v25.84h-15.98v-24.22c0-1.81-.4-3.12-1.19-3.91-.79-.79-2.18-1.19-4.17-1.19-1.19,0-2.42.28-3.7.85-1.28.57-2.31,1.25-3.1,2.04v26.43h-15.98Z"/><path d="m208.25,221.15c-4.7,0-8.16-1.08-10.37-3.23-2.21-2.15-3.32-5.5-3.32-10.03v-8.75c-1.3.74-2.86,1.3-4.67,1.7-1.81.4-3.66.59-5.53.59-6.01,0-10.75-1.61-14.24-4.84-3.49-3.23-5.23-8.44-5.23-15.64s1.7-12.65,5.1-16.19c3.4-3.54,8.02-5.31,13.86-5.31,2.66,0,4.93.35,6.8,1.06,1.87.71,3.6,1.71,5.19,3.02l.85-3.23h13.85v45.73c0,1.36.24,2.29.72,2.8s1.37.76,2.68.76,2.58-.23,3.83-.68v10.54c-1.42.57-2.8.99-4.17,1.27-1.36.28-3.15.43-5.36.43Zm-19.89-31.37c1.36,0,2.52-.17,3.49-.51.96-.34,1.87-.85,2.72-1.53v-14.28c-.91-.79-1.83-1.39-2.76-1.79-.93-.4-2.05-.59-3.36-.59-2.38,0-4.18.76-5.4,2.29-1.22,1.53-1.83,3.97-1.83,7.31s.62,5.84,1.87,7.14c1.25,1.3,3,1.96,5.27,1.96Z"/><path d="m232.81,201.43c-4.7,0-8.39-1.33-11.05-3.99-2.66-2.66-3.99-6.57-3.99-11.73v-25.42h15.98v24.14c0,3.51,1.79,5.27,5.36,5.27,1.3,0,2.58-.28,3.82-.85,1.25-.57,2.24-1.27,2.98-2.12v-26.43h15.98v40.29h-14.96l-.42-3.06c-1.59,1.13-3.53,2.07-5.82,2.8-2.29.74-4.92,1.1-7.86,1.1Z"/><path d="m273.61,200.58v-28.64h-5.87l1.36-11.65h20.48v40.29h-15.98Zm-1.28-45.64v-11.56h17.25v11.56h-17.25Z"/><path d="m310.93,201.43c-4.93,0-8.44-1.05-10.54-3.14-2.1-2.1-3.14-5.38-3.14-9.86v-45.13h15.98v43.35c0,1.25.25,2.08.77,2.51.51.42,1.3.64,2.38.64.74,0,1.46-.06,2.17-.17.71-.11,1.37-.28,2-.51v10.62c-1.47.57-2.91.99-4.29,1.27-1.39.28-3.16.42-5.31.42Z"/></svg>